<svg xmlns="http://www.w3.org/2000/svg" viewBox="0 0 400 280">
  <rect width="400" height="280" fill="#fff8e1"/>
  <rect x="0" y="250" width="400" height="30" fill="#d7ccc8"/>
  <!-- étagères gauche -->
  <rect x="20" y="20" width="10" height="230" fill="#6d4c41"/>
  <rect x="20" y="60"  width="100" height="8" fill="#5d4037"/>
  <rect x="20" y="110" width="100" height="8" fill="#5d4037"/>
  <rect x="20" y="160" width="100" height="8" fill="#5d4037"/>
  <rect x="20" y="210" width="100" height="8" fill="#5d4037"/>
  <rect x="118" y="20" width="10" height="230" fill="#6d4c41"/>
  <!-- boîtes sur étagères -->
  <rect x="28" y="38"  width="36" height="20" rx="2" fill="#f9a825"/>
  <rect x="68" y="38"  width="36" height="20" rx="2" fill="#1565c0"/>
  <rect x="28" y="88"  width="36" height="20" rx="2" fill="#c62828"/>
  <rect x="68" y="88"  width="36" height="20" rx="2" fill="#2e7d32"/>
  <rect x="28" y="138" width="36" height="20" rx="2" fill="#f9a825"/>
  <rect x="68" y="138" width="36" height="20" rx="2" fill="#6a1b9a"/>
  <rect x="28" y="188" width="36" height="20" rx="2" fill="#1565c0"/>
  <rect x="68" y="188" width="36" height="20" rx="2" fill="#c62828"/>
  <!-- homme debout -->
  <circle cx="230" cy="110" r="24" fill="#ffb74d"/>
  <ellipse cx="230" cy="88" rx="24" ry="12" fill="#212121"/>
  <rect x="210" y="134" width="40" height="60" rx="8" fill="#1a237e"/>
  <rect x="190" y="148" width="20" height="38" rx="6" fill="#1a237e"/>
  <rect x="250" y="148" width="20" height="38" rx="6" fill="#1a237e"/>
  <!-- bloc-notes dans la main -->
  <rect x="165" y="148" width="26" height="34" rx="3" fill="#fff" stroke="#90a4ae" stroke-width="1.5"/>
  <line x1="171" y1="158" x2="184" y2="158" stroke="#546e7a" stroke-width="1.5"/>
  <line x1="171" y1="165" x2="184" y2="165" stroke="#546e7a" stroke-width="1.5"/>
  <line x1="171" y1="172" x2="180" y2="172" stroke="#546e7a" stroke-width="1.5"/>
  <!-- bras gauche vers le bloc -->
  <line x1="190" y1="155" x2="192" y2="162" stroke="#ffb74d" stroke-width="8" stroke-linecap="round"/>
</svg>
