<svg xmlns="http://www.w3.org/2000/svg" viewBox="0 0 400 280">
  <rect width="400" height="280" fill="#e8f5e9"/>
  <rect x="0" y="240" width="400" height="40" fill="#a5d6a7"/>
  <!-- bureau -->
  <rect x="30" y="190" width="120" height="12" rx="3" fill="#8d6e63"/>
  <rect x="230" y="195" width="120" height="12" rx="3" fill="#8d6e63"/>
  <!-- plante 1 -->
  <rect x="80" y="150" width="14" height="42" rx="3" fill="#795548"/>
  <ellipse cx="87" cy="148" rx="28" ry="22" fill="#2e7d32"/>
  <ellipse cx="70" cy="155" rx="16" ry="12" fill="#388e3c"/>
  <ellipse cx="104" cy="152" rx="16" ry="12" fill="#388e3c"/>
  <!-- pot -->
  <rect x="74" y="188" width="26" height="18" rx="4" fill="#e64a19"/>
  <!-- plante 2 -->
  <rect x="295" y="158" width="12" height="38" rx="3" fill="#795548"/>
  <ellipse cx="301" cy="156" rx="22" ry="18" fill="#1b5e20"/>
  <!-- pot 2 -->
  <rect x="288" y="193" width="22" height="15" rx="4" fill="#bf360c"/>
  <!-- femme arrosant -->
  <circle cx="200" cy="108" r="22" fill="#ffcc80"/>
  <ellipse cx="200" cy="88" rx="22" ry="11" fill="#6d4c41"/>
  <rect x="180" y="130" width="40" height="60" rx="8" fill="#ad1457"/>
  <!-- arrosoir -->
  <rect x="152" y="135" width="30" height="22" rx="5" fill="#42a5f5"/>
  <line x1="152" y1="146" x2="138" y2="165" stroke="#42a5f5" stroke-width="5" stroke-linecap="round"/>
  <!-- bras gauche avec arrosoir -->
  <line x1="180" y1="148" x2="168" y2="144" stroke="#ffcc80" stroke-width="9" stroke-linecap="round"/>
  <!-- bras droit -->
  <line x1="220" y1="148" x2="238" y2="165" stroke="#ffcc80" stroke-width="9" stroke-linecap="round"/>
  <!-- gouttes d'eau -->
  <circle cx="132" cy="170" r="3" fill="#42a5f5" opacity="0.8"/>
  <circle cx="126" cy="178" r="2.5" fill="#42a5f5" opacity="0.7"/>
  <circle cx="136" cy="180" r="2" fill="#42a5f5" opacity="0.6"/>
</svg>
