<svg xmlns="http://www.w3.org/2000/svg" viewBox="0 0 400 280">
  <rect width="400" height="280" fill="#fce4ec"/>
  <rect x="0" y="220" width="400" height="60" fill="#d7ccc8"/>
  <!-- bureau -->
  <rect x="60" y="188" width="280" height="15" rx="3" fill="#8d6e63"/>
  <rect x="80" y="203" width="10" height="30" fill="#6d4c41"/>
  <rect x="310" y="203" width="10" height="30" fill="#6d4c41"/>
  <!-- ordinateur portable ouvert -->
  <rect x="140" y="155" width="120" height="75" rx="5" fill="#263238"/>
  <rect x="148" y="162" width="104" height="60" fill="#0097a7"/>
  <!-- charnière -->
  <rect x="128" y="188" width="144" height="10" rx="4" fill="#37474f"/>
  <!-- femme assise -->
  <circle cx="280" cy="108" r="22" fill="#ffcc80"/>
  <ellipse cx="280" cy="88" rx="22" ry="11" fill="#880e4f"/>
  <!-- corps -->
  <rect x="260" y="130" width="40" height="60" rx="8" fill="#ad1457"/>
  <!-- jambes (assise) -->
  <rect x="258" y="185" width="18" height="12" rx="4" fill="#4a148c"/>
  <rect x="280" y="185" width="18" height="12" rx="4" fill="#4a148c"/>
  <!-- téléphone -->
  <rect x="240" y="120" width="16" height="28" rx="4" fill="#212121"/>
  <rect x="243" y="124" width="10" height="18" fill="#42a5f5"/>
  <!-- bras gauche avec téléphone à l'oreille -->
  <line x1="260" y1="138" x2="248" y2="128" stroke="#ffcc80" stroke-width="9" stroke-linecap="round"/>
  <!-- bras droit -->
  <line x1="300" y1="142" x2="315" y2="158" stroke="#ffcc80" stroke-width="9" stroke-linecap="round"/>
</svg>
