<svg xmlns="http://www.w3.org/2000/svg" viewBox="0 0 400 300" role="img" aria-label="Une réceptionniste assise derrière un comptoir d'accueil, souriant à un visiteur qui signe un registre">
  <rect width="400" height="300" fill="#f0fdf4"/>
  <rect x="0" y="240" width="400" height="60" fill="#d1fae5"/>
  <rect x="60" y="180" width="280" height="70" rx="4" fill="#ffffff" stroke="#cbd5e1" stroke-width="2"/>
  <rect x="80" y="50" width="30" height="4" fill="#16a34a"/>
  <rect x="290" y="50" width="30" height="4" fill="#16a34a"/>
  <circle cx="150" cy="130" r="20" fill="#fbbf24"/>
  <rect x="132" y="150" width="36" height="40" rx="8" fill="#dc2626"/>
  <rect x="132" y="165" width="36" height="55" fill="#dc2626"/>
  <rect x="220" y="185" width="80" height="50" rx="3" fill="#f8fafc" stroke="#e2e8f0" stroke-width="1"/>
  <line x1="230" y1="205" x2="290" y2="205" stroke="#94a3b8" stroke-width="2"/>
  <line x1="230" y1="215" x2="280" y2="215" stroke="#94a3b8" stroke-width="2"/>
  <circle cx="290" cy="120" r="20" fill="#f59e0b"/>
  <rect x="272" y="140" width="36" height="40" rx="8" fill="#1e3a8a"/>
  <rect x="272" y="160" width="36" height="55" fill="#1e3a8a"/>
  <rect x="254" y="192" width="18" height="8" rx="2" fill="#f8fafc"/>
  <rect x="252" y="188" width="4" height="16" rx="1" fill="#1e293b"/>
</svg>
