<svg xmlns="http://www.w3.org/2000/svg" viewBox="0 0 400 300" role="img" aria-label="Une femme debout dans une salle de stockage, comptant des boîtes sur des étagères métalliques">
  <rect width="400" height="300" fill="#f8fafc"/>
  <rect x="0" y="260" width="400" height="40" fill="#e2e8f0"/>
  <rect x="30" y="40" width="10" height="220" fill="#64748b"/>
  <rect x="30" y="60" width="130" height="10" fill="#64748b"/>
  <rect x="30" y="110" width="130" height="10" fill="#64748b"/>
  <rect x="30" y="160" width="130" height="10" fill="#64748b"/>
  <rect x="30" y="210" width="130" height="10" fill="#64748b"/>
  <rect x="150" y="40" width="10" height="220" fill="#64748b"/>
  <rect x="40" y="65" width="40" height="40" rx="2" fill="#fbbf24"/>
  <rect x="85" y="65" width="40" height="40" rx="2" fill="#3b82f6"/>
  <rect x="40" y="115" width="40" height="40" rx="2" fill="#dc2626"/>
  <rect x="85" y="115" width="40" height="40" rx="2" fill="#16a34a"/>
  <rect x="40" y="165" width="40" height="40" rx="2" fill="#fbbf24"/>
  <rect x="85" y="165" width="40" height="40" rx="2" fill="#7c3aed"/>
  <circle cx="270" cy="140" r="22" fill="#fbbf24"/>
  <rect x="252" y="162" width="36" height="50" rx="8" fill="#dc2626"/>
  <rect x="230" y="160" width="22" height="30" rx="3" fill="#f8fafc" stroke="#cbd5e1" stroke-width="1"/>
  <rect x="234" y="170" width="14" height="6" fill="#64748b"/>
  <rect x="234" y="180" width="10" height="4" fill="#64748b"/>
</svg>
