<svg xmlns="http://www.w3.org/2000/svg" viewBox="0 0 400 300" role="img" aria-label="Un chef cuisinier en tablier blanc préparant des plats dans une cuisine professionnelle">
  <rect width="400" height="300" fill="#fffbeb"/>
  <rect x="0" y="250" width="400" height="50" fill="#fde68a"/>
  <rect x="60" y="180" width="280" height="70" rx="4" fill="#475569"/>
  <rect x="80" y="170" width="80" height="20" rx="3" fill="#334155"/>
  <rect x="240" y="170" width="80" height="20" rx="3" fill="#334155"/>
  <rect x="100" y="155" width="40" height="25" rx="20" fill="#dc2626"/>
  <rect x="180" y="155" width="40" height="25" rx="20" fill="#dc2626"/>
  <rect x="260" y="155" width="40" height="25" rx="20" fill="#dc2626"/>
  <rect x="90" y="165" width="60" height="6" fill="#f59e0b"/>
  <rect x="170" y="165" width="60" height="6" fill="#f59e0b"/>
  <circle cx="200" cy="110" r="22" fill="#fbbf24"/>
  <rect x="182" y="132" width="36" height="50" rx="8" fill="#ffffff" stroke="#e2e8f0" stroke-width="2"/>
  <rect x="182" y="148" width="36" height="34" fill="#ffffff"/>
  <rect x="176" y="108" width="48" height="14" rx="7" fill="#ffffff"/>
</svg>
