<svg xmlns="http://www.w3.org/2000/svg" viewBox="0 0 400 280">
  <rect width="400" height="280" fill="#fff8e1"/>
  <rect x="0" y="250" width="400" height="30" fill="#ffe0b2"/>
  <!-- fond machine à café / espace pause -->
  <rect x="280" y="60" width="80" height="130" rx="6" fill="#455a64"/>
  <rect x="290" y="72" width="60" height="40" rx="3" fill="#37474f"/>
  <circle cx="320" cy="140" r="12" fill="#263238"/>
  <circle cx="320" cy="140" r="6"  fill="#37474f"/>
  <!-- collègue gauche avec tasse -->
  <circle cx="110" cy="105" r="24" fill="#ffb74d"/>
  <ellipse cx="110" cy="83"  rx="24" ry="12" fill="#880e4f"/>
  <rect x="90"  y="129" width="40" height="65" rx="8" fill="#6a1b9a"/>
  <rect x="70"  y="143" width="20" height="40" rx="7" fill="#6a1b9a"/>
  <rect x="130" y="143" width="20" height="40" rx="7" fill="#6a1b9a"/>
  <!-- tasse à café gauche -->
  <rect x="128" y="148" width="26" height="22" rx="5" fill="#fff" stroke="#cfd8dc" stroke-width="1.5"/>
  <path d="M154 155 Q162 155 162 162 Q162 168 154 168" stroke="#cfd8dc" stroke-width="2" fill="none"/>
  <!-- bras droit tenant la tasse -->
  <line x1="130" y1="148" x2="136" y2="152" stroke="#ffb74d" stroke-width="9" stroke-linecap="round"/>
  <!-- collègue droit avec tasse -->
  <circle cx="260" cy="105" r="24" fill="#ffcc80"/>
  <ellipse cx="260" cy="83"  rx="24" ry="12" fill="#37474f"/>
  <rect x="240" y="129" width="40" height="65" rx="8" fill="#1565c0"/>
  <rect x="220" y="143" width="20" height="40" rx="7" fill="#1565c0"/>
  <rect x="280" y="143" width="20" height="40" rx="7" fill="#1565c0"/>
  <!-- tasse café droite -->
  <rect x="196" y="148" width="26" height="22" rx="5" fill="#fff" stroke="#cfd8dc" stroke-width="1.5"/>
  <path d="M196 155 Q188 155 188 162 Q188 168 196 168" stroke="#cfd8dc" stroke-width="2" fill="none"/>
  <!-- bras gauche tenant tasse -->
  <line x1="220" y1="148" x2="214" y2="152" stroke="#ffcc80" stroke-width="9" stroke-linecap="round"/>
  <!-- vapeur -->
  <path d="M220 144 Q223 138 220 132" stroke="#cfd8dc" stroke-width="2" fill="none"/>
  <path d="M140 144 Q143 138 140 132" stroke="#cfd8dc" stroke-width="2" fill="none"/>
</svg>
