<svg xmlns="http://www.w3.org/2000/svg" viewBox="0 0 400 300" role="img" aria-label="Un homme debout dans un entrepôt, vérifiant une liste sur une tablette pendant qu'un chariot élévateur passe en arrière-plan">
  <rect width="400" height="300" fill="#fef9ee"/>
  <rect x="0" y="260" width="400" height="40" fill="#d1d5db"/>
  <rect x="0" y="60" width="400" height="200" fill="#f8fafc"/>
  <rect x="40" y="80" width="20" height="180" fill="#64748b"/>
  <rect x="40" y="100" width="80" height="20" rx="2" fill="#f59e0b"/>
  <rect x="40" y="140" width="80" height="20" rx="2" fill="#3b82f6"/>
  <rect x="40" y="180" width="80" height="20" rx="2" fill="#dc2626"/>
  <rect x="140" y="80" width="20" height="180" fill="#64748b"/>
  <rect x="280" y="180" width="80" height="40" rx="4" fill="#fbbf24"/>
  <rect x="280" y="220" width="80" height="20" fill="#475569"/>
  <circle cx="316" cy="240" r="12" fill="#1e293b"/>
  <circle cx="344" cy="240" r="12" fill="#1e293b"/>
  <rect x="290" y="155" width="40" height="30" rx="3" fill="#fbbf24"/>
  <rect x="360" y="160" width="10" height="80" fill="#475569"/>
  <circle cx="200" cy="140" r="22" fill="#fbbf24"/>
  <rect x="182" y="162" width="36" height="50" rx="8" fill="#334155"/>
  <rect x="188" y="148" width="20" height="28" rx="3" fill="#1e293b"/>
  <rect x="190" y="152" width="16" height="20" fill="#38bdf8"/>
</svg>
