<svg xmlns="http://www.w3.org/2000/svg" viewBox="0 0 400 280">
  <rect width="400" height="280" fill="#fce4ec"/>
  <rect x="0" y="250" width="400" height="30" fill="#f8bbd0"/>
  <!-- table -->
  <rect x="60" y="180" width="280" height="14" rx="4" fill="#8d6e63"/>
  <rect x="80" y="194" width="10" height="35" fill="#6d4c41"/>
  <rect x="310" y="194" width="10" height="35" fill="#6d4c41"/>
  <!-- gâteau sur la table -->
  <rect x="162" y="148" width="76" height="34" rx="6" fill="#f06292"/>
  <rect x="162" y="148" width="76" height="14" rx="6" fill="#f48fb1"/>
  <!-- bougies sur le gâteau -->
  <rect x="175" y="132" width="5" height="18" rx="2" fill="#fff9c4"/>
  <rect x="190" y="132" width="5" height="18" rx="2" fill="#fff9c4"/>
  <rect x="205" y="132" width="5" height="18" rx="2" fill="#fff9c4"/>
  <rect x="220" y="132" width="5" height="18" rx="2" fill="#fff9c4"/>
  <circle cx="177" cy="130" r="4" fill="#f9a825"/>
  <circle cx="192" cy="130" r="4" fill="#f9a825"/>
  <circle cx="207" cy="130" r="4" fill="#f9a825"/>
  <circle cx="222" cy="130" r="4" fill="#f9a825"/>
  <!-- 4 personnes autour -->
  <!-- gauche -->
  <circle cx="80"  cy="128" r="18" fill="#ffb74d"/>
  <rect x="64"  y="146" width="32" height="44" rx="7" fill="#c62828"/>
  <!-- centre gauche -->
  <circle cx="148" cy="118" r="18" fill="#ffcc80"/>
  <rect x="132" y="136" width="32" height="44" rx="7" fill="#2e7d32"/>
  <!-- centre droit -->
  <circle cx="252" cy="118" r="18" fill="#ef9a9a"/>
  <rect x="236" y="136" width="32" height="44" rx="7" fill="#6a1b9a"/>
  <!-- droit -->
  <circle cx="320" cy="128" r="18" fill="#a5d6a7"/>
  <rect x="304" y="146" width="32" height="44" rx="7" fill="#1565c0"/>
  <!-- sourires (arcs) -->
  <path d="M74 134 Q80 140 86 134"  stroke="#333" stroke-width="1.5" fill="none"/>
  <path d="M142 124 Q148 130 154 124" stroke="#333" stroke-width="1.5" fill="none"/>
</svg>
