<svg xmlns="http://www.w3.org/2000/svg" viewBox="0 0 400 300" role="img" aria-label="Un homme poussant un chariot à bagages dans le terminal d'un aéroport, avec un panneau d'affichage des départs au mur">
  <rect width="400" height="300" fill="#f1f5f9"/>
  <rect x="0" y="230" width="400" height="70" fill="#cbd5e1"/>
  <rect x="40" y="40" width="140" height="50" rx="4" fill="#1e293b"/>
  <rect x="50" y="50" width="120" height="10" fill="#38bdf8"/>
  <rect x="50" y="64" width="90" height="8" fill="#94a3b8"/>
  <rect x="50" y="76" width="100" height="8" fill="#94a3b8"/>
  <circle cx="230" cy="150" r="18" fill="#fbbf24"/>
  <rect x="214" y="170" width="32" height="46" rx="6" fill="#1e3a8a"/>
  <rect x="206" y="180" width="14" height="34" rx="4" fill="#1e3a8a"/>
  <rect x="246" y="180" width="14" height="34" rx="4" fill="#1e3a8a"/>
  <rect x="160" y="190" width="70" height="40" rx="3" fill="#475569"/>
  <rect x="168" y="160" width="30" height="40" rx="3" fill="#f59e0b"/>
  <rect x="200" y="170" width="26" height="30" rx="3" fill="#ef4444"/>
  <circle cx="172" cy="232" r="8" fill="#1e293b"/>
  <circle cx="218" cy="232" r="8" fill="#1e293b"/>
  <rect x="160" y="226" width="80" height="6" fill="#94a3b8"/>
</svg>
